<svg xmlns="http://www.w3.org/2000/svg" viewBox="0 0 1054.714 327.812">
  <g>
    <g>
      <path d="M50.384,83.02l80.259,80.259V76.62a95.506,95.506,0,0,0-80.259,6.4Z" style="fill: #ffa101;opacity: 0.8"/>
      <path d="M122.8,74.082V187.591l61.276-61.275A95.546,95.546,0,0,0,122.8,74.082Z" style="fill: #f7ed00;opacity: 0.8"/>
      <path d="M180.318,118.977,100.06,199.236h86.659a95.512,95.512,0,0,0-6.4-80.259Z" style="fill: #b5dd01;opacity: 0.8"/>
      <path d="M189.257,191.391H75.747l61.276,61.275A95.547,95.547,0,0,0,189.257,191.391Z" style="fill: #60c660;opacity: 0.8"/>
      <path d="M144.361,248.911,64.1,168.653v86.659a95.51,95.51,0,0,0,80.258-6.4Z" style="fill: #668fd1;opacity: 0.8"/>
      <path d="M10.672,205.616a95.547,95.547,0,0,0,61.276,52.233V144.34Z" style="fill: #9869bc;opacity: 0.8"/>
      <path d="M8.027,132.7a95.5,95.5,0,0,0,6.4,80.258L94.686,132.7Z" style="fill: #d35f99;opacity: 0.8"/>
      <path d="M57.723,79.265A95.544,95.544,0,0,0,5.489,140.54H119Z" style="fill: #e54838;opacity: 0.8"/>
    </g>
    <circle cx="97.373" cy="165.966" r="89.873" style="fill: none"/>
    <g>
      <path d="M1038.758,78.359,980.407,239.278l-58.9-136.922a43.66,43.66,0,0,0-69.861-14.7l-91.2,84.935L760.512.006l-15-.006-.084,229.916a18.391,18.391,0,0,1-36.781-.007V142.916a67.576,67.576,0,0,0-67.5-67.5h-5a67.577,67.577,0,0,0-67.5,67.5V195.8a52.56,52.56,0,0,1-52.5,52.5h-.7a52.56,52.56,0,0,1-52.5-52.5V105.916a27.531,27.531,0,0,0-27.5-27.5H401.572V31.591c0-8.79,7.243-16.5,15.5-16.5h27.557v-15H417.072c-16.533,0-30.5,14.425-30.5,31.5V78.416H347.537v15h39.035V259.954h15V93.416h33.871a12.514,12.514,0,0,1,12.5,12.5V195.8a67.577,67.577,0,0,0,67.5,67.5h.7a67.576,67.576,0,0,0,67.5-67.5V142.916a52.56,52.56,0,0,1,52.5-52.5h5a52.56,52.56,0,0,1,52.5,52.5v86.993a33.391,33.391,0,0,0,66.781.013l.013-36.825,38.676-36.018,80.407,102.786h19.044L810.135,146.818l51.737-48.182a28.658,28.658,0,0,1,45.858,9.648l65.208,151.592L959.12,297.981a22.566,22.566,0,0,1-21.152,14.831H921.605v15h16.363A37.61,37.61,0,0,0,973.222,303.1l81.492-224.736Z" style="fill: #1d1b2f"/>
      <path d="M270.381,76.354A78.977,78.977,0,0,0,192.3,144.221,97.352,97.352,0,0,0,15.006,114.09V.1h-15V165.5c0,.154-.006.308-.006.462a97.375,97.375,0,0,0,192.066,22.706,84.264,84.264,0,0,0,83.6,74.628c29.5,0,59.069-17.494,72.312-42.649H330.352c-12.1,16.608-33.4,27.649-54.687,27.649a69.232,69.232,0,0,1-69.153-69.154v-2.21H349.25V155.223c0-23.413-8.036-43.42-23.239-57.857C311.742,83.815,291.985,76.354,270.381,76.354ZM97.373,248.339A82.466,82.466,0,0,1,15,165.966c0-.066.005-.13.005-.2h0v-.036a82.37,82.37,0,1,1,82.367,82.6Zm236.877-86.4H206.512v-6.713a63.941,63.941,0,0,1,63.869-63.869c17.744,0,33.831,6,45.3,16.889,12.147,11.535,18.568,27.78,18.568,46.98Z" style="fill: #1d1b2f"/>
    </g>
  </g>
</svg>